<?xml version="1.0" encoding="UTF-8" standalone="no"?>
<svg
   height="128px"
   viewBox="0 0 128 128"
   width="128px"
   version="1.1"
   id="svg18"
   sodipodi:docname="fi.taimila.Stocks.svg"
   inkscape:version="1.4.2 (ebf0e940d0, 2025-05-08)"
   xmlns:inkscape="http://www.inkscape.org/namespaces/inkscape"
   xmlns:sodipodi="http://sodipodi.sourceforge.net/DTD/sodipodi-0.dtd"
   xmlns="http://www.w3.org/2000/svg"
   xmlns:svg="http://www.w3.org/2000/svg">
  <defs
     id="defs18">
    <rect
       x="44.198895"
       y="46.143646"
       width="8.4861876"
       height="14.76243"
       id="rect18" />
  </defs>
  <sodipodi:namedview
     id="namedview18"
     pagecolor="#ffffff"
     bordercolor="#000000"
     borderopacity="0.25"
     inkscape:showpageshadow="2"
     inkscape:pageopacity="0.0"
     inkscape:pagecheckerboard="0"
     inkscape:deskcolor="#d1d1d1"
     inkscape:zoom="11.3125"
     inkscape:cx="64"
     inkscape:cy="64"
     inkscape:window-width="3072"
     inkscape:window-height="1659"
     inkscape:window-x="0"
     inkscape:window-y="0"
     inkscape:window-maximized="1"
     inkscape:current-layer="svg18" />
  <linearGradient
     id="a"
     gradientUnits="userSpaceOnUse"
     x1="12.000257"
     x2="116.000257"
     y1="63.999762"
     y2="63.999762">
    <stop
       offset="0"
       stop-color="#3d3846"
       id="stop1" />
    <stop
       offset="0.05"
       stop-color="#77767b"
       id="stop2" />
    <stop
       offset="0.1"
       stop-color="#5e5c64"
       id="stop3" />
    <stop
       offset="0.899999"
       stop-color="#5e5c64"
       id="stop4" />
    <stop
       offset="0.95"
       stop-color="#77767b"
       id="stop5" />
    <stop
       offset="1"
       stop-color="#3d3846"
       id="stop6" />
  </linearGradient>
  <linearGradient
     id="b"
     gradientTransform="matrix(1 0 0 1.041669 0.000267 -179.667363)"
     gradientUnits="userSpaceOnUse"
     x1="11.999734"
     x2="115.947823"
     y1="190.000244"
     y2="190.000244">
    <stop
       offset="0"
       stop-color="#5e5c64"
       id="stop7" />
    <stop
       offset="0.0378316"
       stop-color="#8a8791"
       id="stop8" />
    <stop
       offset="0.079384"
       stop-color="#78747f"
       id="stop9" />
    <stop
       offset="0.904298"
       stop-color="#72707a"
       id="stop10" />
    <stop
       offset="0.945175"
       stop-color="#77747e"
       id="stop11" />
    <stop
       offset="1"
       stop-color="#37363b"
       id="stop12" />
  </linearGradient>
  <linearGradient
     id="c"
     gradientUnits="userSpaceOnUse"
     x1="74.559555"
     x2="74.559555"
     y1="5.440298"
     y2="86.167944">
    <stop
       offset="0"
       stop-color="#3d3846"
       id="stop13"
       style="stop-color:#38463f;stop-opacity:1;" />
    <stop
       offset="1"
       stop-color="#241f31"
       id="stop14"
       style="stop-color:#121c14;stop-opacity:1;" />
  </linearGradient>
  <path
     d="m 20 22 h 88 c 4.417969 0 8 3.582031 8 8 v 78 c 0 4.417969 -3.582031 8 -8 8 h -88 c -4.417969 0 -8 -3.582031 -8 -8 v -78 c 0 -4.417969 3.582031 -8 8 -8 z m 0 0"
     fill="url(#a)"
     id="path14" />
  <path
     d="m 20 12 h 88 c 4.417969 0 8 3.730469 8 8.332031 v 83.335938 c 0 4.601562 -3.582031 8.332031 -8 8.332031 h -88 c -4.417969 0 -8 -3.730469 -8 -8.332031 v -83.335938 c 0 -4.601562 3.582031 -8.332031 8 -8.332031 z m 0 0"
     fill="url(#b)"
     id="path15" />
  <path
     d="m 20 14 h 88 c 4.417969 0 8 3.582031 8 8 v 80 c 0 4.417969 -3.582031 8 -8 8 h -88 c -4.417969 0 -8 -3.582031 -8 -8 v -80 c 0 -4.417969 3.582031 -8 8 -8 z m 0 0"
     fill="url(#c)"
     id="path16" />
  <g
     fill="#62c9ea"
     id="g18"
     style="fill:#62ea6a;fill-opacity:1" />
  <text
     xml:space="preserve"
     id="text18"
     style="font-style:normal;font-variant:normal;font-weight:normal;font-stretch:normal;font-family:'Adwaita Sans';-inkscape-font-specification:'Adwaita Sans';text-align:start;writing-mode:lr-tb;direction:ltr;white-space:pre;shape-inside:url(#rect18);fill:#62ea6a;fill-opacity:1"
     transform="matrix(8.4924816,0,0,7.4684842,-344.23875,-333.78962)"><tspan
       x="44.199219"
       y="57.252279"
       id="tspan1">€</tspan></text>
</svg>
